******************************************************
 
Aris Min Geha Amneya 2004 DVDRip X264 ACC - alrmothe

******************************************************

TiTLE: Aris Min Geha Amneya
YEAR:2004
GENRE : Comedy
elcinema URL :http://www.elcinema.com/work/wk1001090/
SIZE : 1.52 GB
Format : mp4 
Overall bit rate:2266 Kbps
Sub: No 
*******************************************************

Video
Format : AVC
Format/Info : Advanced Video Codec
Format profile : High@L3.0
Runtime: 1h 35min 53sec
bit rate: 2100 Kbps
Width: 708 pixels
Height: 436 pixels
Frame rate: 25.398 fps
Bit depth : 8 bits
Bits/(Pixel*Frame) : 0.268
Stream size : 1.41 GiB (93%)

Audio: Arabic
Format: ACC
Bit rate: 160 Kbps
Sampling rate: 48.0 KHz
Channel(s): 2 channels
Stream size : 110 MiB (7%)
Language : Arabic
**********************************************************


DVD ╪º┘ä┘à╪╡╪»╪▒ ┘é╪▒╪╡


Screenshots
 
http://img594.imageshack.us/img594/4716/vlcsnap2013012122h41m25.png 
http://img809.imageshack.us/img809/1331/vlcsnap2013012122h41m39.png 
http://img836.imageshack.us/img836/9990/vlcsnap2013012122h41m51.png 
http://img94.imageshack.us/img94/553/vlcsnap2013012122h42m27.png


Code:


 
http://121.14.98.151:9090/announce 
http://tracker.ex.ua/announce 
http://p2pdl.com:2710/announce 
http://exodus.desync.com:6969/announce 
http://94.228.192.98/announce
udp://tracker.istole.it:80/announce


